<svg t="1716093946552" class="icon" viewBox="0 0 1024 1024" version="1.1" xmlns="http://www.w3.org/2000/svg" p-id="1922" width="200" height="200"><path d="M810.666667 512V367.786667c-70.613333 37.76-178.56 58.88-298.666667 58.88-120.106667 0-228.053333-21.12-298.666667-58.88V512c0 35.712 132.309333 85.333333 298.666667 85.333333s298.666667-49.621333 298.666667-85.333333z m0 111.786667c-70.613333 37.76-178.56 58.88-298.666667 58.88-120.106667 0-228.053333-21.12-298.666667-58.88V768c0 35.712 132.309333 85.333333 298.666667 85.333333s298.666667-49.621333 298.666667-85.333333v-144.213333zM128 256c0-105.685333 173.312-170.666667 384-170.666667s384 64.981333 384 170.666667v512c0 105.685333-173.312 170.666667-384 170.666667s-384-64.981333-384-170.666667V256z m384 85.333333c166.357333 0 298.666667-49.621333 298.666667-85.333333s-132.309333-85.333333-298.666667-85.333333-298.666667 49.621333-298.666667 85.333333 132.309333 85.333333 298.666667 85.333333z" fill="currentColor" p-id="1923"></path></svg>