<?xml version="1.0" standalone="no"?><!DOCTYPE svg PUBLIC "-//W3C//DTD SVG 1.1//EN" "http://www.w3.org/Graphics/SVG/1.1/DTD/svg11.dtd"><svg t="1767419589560" class="icon" viewBox="0 0 1024 1024" version="1.1" xmlns="http://www.w3.org/2000/svg" p-id="2540" xmlns:xlink="http://www.w3.org/1999/xlink" width="200" height="200"><path d="M512 26.54814777C243.78785223 26.54814777 26.54814777 243.78785223 26.54814777 512a485.16058112 485.16058112 0 0 0 331.95197668 460.59671666c24.27259221 4.22343111 33.35054222-10.34012445 33.35054222-23.10750777 0-11.50520889-0.63108779-49.71027001-0.63108779-90.39113444-121.94550557 22.47642112-153.49987555-29.70965333-163.20891221-57.04059335-5.48560555-13.98101333-29.12711111-57.04059221-49.75881444-68.59434667-16.99081443-9.07795001-41.26340779-31.55436999-0.63108778-32.13691221 38.25360555-0.63108779 65.536 35.19525888 74.66249443 49.75881444 43.69066667 73.40032 113.49864334 52.76861667 141.36358002 40.04977777 4.27197667-31.55436999 16.99081443-52.76861667 30.97182777-64.90491221-108.01303666-12.13629667-220.88059221-54.03079111-220.88059222-239.71612444 0-52.8171611 18.78698667-96.45928334 49.75881444-130.48945778-4.8545189-12.13629667-21.84533333-61.89511111 4.8545189-128.64474112 0 0 40.63232-12.7188389 133.49925888 49.80736a450.4993189 450.4993189 0 0 1 121.36296334-16.40827221c41.26340779 0 82.52681443 5.43706112 121.3629622 16.35972778 92.81839445-63.10874112 133.49925888-49.71027001 133.49926002-49.71027 26.69985223 66.74963001 9.70903666 116.50844445 4.85451776 128.64474112 30.92328334 33.98163001 49.75881443 77.04120889 49.75881558 130.44091221 0 186.31642112-113.45009778 227.57982777-221.46313558 239.71612444 17.57335666 15.14609778 32.768 44.27320889 32.768 89.80859221 0 64.90491221-0.63108779 117.09098667-0.63108665 133.49926002 0 12.7188389 9.12649443 27.86493667 33.39908665 23.01041778A486.22857443 486.22857443 0 0 0 997.45185223 512c0-268.21214777-217.23970333-485.45185223-485.45185223-485.45185223z" fill="#000000" p-id="2541"></path></svg>