<?xml version="1.0" standalone="no"?><!DOCTYPE svg PUBLIC "-//W3C//DTD SVG 1.1//EN" "http://www.w3.org/Graphics/SVG/1.1/DTD/svg11.dtd"><svg t="1750843069269" class="icon" viewBox="0 0 1024 1024" version="1.1" xmlns="http://www.w3.org/2000/svg" p-id="2757" xmlns:xlink="http://www.w3.org/1999/xlink" width="200" height="200"><path fill="currentColor" d="M113.792 170.666667A113.792 113.792 0 0 0 0 284.458667v455.082666A113.792 113.792 0 0 0 113.792 853.333333h796.416A113.792 113.792 0 0 0 1024 739.541333V284.458667A113.792 113.792 0 0 0 910.208 170.666667H113.792zM85.333333 298.666667a42.666667 42.666667 0 0 1 42.666667-42.666667h768a42.666667 42.666667 0 0 1 42.666667 42.666667v426.666666a42.666667 42.666667 0 0 1-42.666667 42.666667H128a42.666667 42.666667 0 0 1-42.666667-42.666667V298.666667z m395.434667 180.224c8.618667-12.117333 14.976-23.509333 19.157333-34.218667 4.138667-10.581333 6.229333-21.845333 6.229334-33.834667 0-13.568-2.773333-25.045333-8.149334-34.56a56.149333 56.149333 0 0 0-22.101333-22.357333 62.848 62.848 0 0 0-31.658667-8.021333c-12.544 0-23.338667 2.986667-32.426666 8.746666-9.173333 5.802667-16.213333 13.952-21.205334 24.661334-1.877333 4.010667-3.413333 8.32-4.565333 12.885333-3.968 15.274667-16.469333 29.269333-33.493333 29.269333-16.64 0-31.232-13.696-28.501334-31.061333 2.432-15.530667 7.04-29.738667 13.909334-42.666667 10.666667-19.925333 25.301333-35.498667 43.946666-46.506666a121.002667 121.002667 0 0 1 63.402667-16.768c23.765333 0 44.885333 5.461333 63.232 16.512 18.346667 10.88 32.725333 25.813333 43.008 44.672 10.325333 18.773333 15.445333 39.893333 15.445333 63.317333 0 16.213333-2.645333 32.085333-7.978666 47.573333-5.162667 15.530667-14.208 32.64-26.88 51.370667-12.757333 18.56-30.336 41.002667-52.821334 67.328l-70.4 84.992h132.565334a31.445333 31.445333 0 1 1 0 62.933333H360.405333a38.058667 38.058667 0 0 1-29.184-62.506666l116.736-139.434667c13.269333-16.128 24.192-30.293333 32.768-42.325333z m170.24 234.922666a120.192 120.192 0 0 1-47.402667-42.24 116.394667 116.394667 0 0 1-14.293333-32.981333c-4.949333-18.773333 11.136-34.176 29.184-34.176 17.493333 0 30.122667 14.208 37.248 28.032 1.152 2.218667 2.432 4.352 3.882667 6.4 6.314667 8.533333 14.506667 15.189333 24.746666 19.882667 10.24 4.693333 21.632 7.082667 34.346667 7.082666 13.952 0 26.154667-2.773333 36.693333-8.234666 10.666667-5.504 18.901333-13.098667 24.874667-22.826667 5.930667-9.813333 8.96-21.205333 8.96-34.261333 0-13.653333-3.029333-25.429333-8.96-35.541334h-0.085333a60.970667 60.970667 0 0 0-25.898667-24.192c-11.264-5.888-25.173333-8.917333-41.728-8.917333h-4.992a30.122667 30.122667 0 0 1 0-60.245333h4.992c13.141333 0 24.448-2.688 34.090667-8.021334 9.813333-5.290667 17.450667-12.672 22.954666-22.144 5.461333-9.514667 8.277333-20.778667 8.277334-33.92a67.84 67.84 0 0 0-7.253334-32.341333l-0.042666-0.085333a51.797333 51.797333 0 0 0-20.053334-21.418667c-8.533333-5.12-18.773333-7.765333-30.762666-7.765333-11.434667 0-22.058667 2.432-31.914667 7.253333a59.818667 59.818667 0 0 0-28.074667 27.904c-6.357333 13.653333-18.474667 27.52-35.370666 27.52-17.109333 0-32.426667-14.506667-28.074667-32.384 3.029333-12.373333 7.893333-23.808 14.634667-34.304a122.581333 122.581333 0 0 1 46.08-42.24 133.034667 133.034667 0 0 1 63.445333-15.189333c24.234667 0 45.397333 5.461333 63.274667 16.554666 17.834667 10.88 31.658667 25.429333 41.386666 43.605334 9.813333 18.176 14.592 38.058667 14.506667 59.605333 0.085333 24.448-5.845333 45.482667-18.005333 62.848a87.125333 87.125333 0 0 1-40.448 32.298667c21.504 5.333333 38.613333 16.469333 51.2 33.408 14.122667 18.944 21.034667 42.24 20.906666 69.802666a120.405333 120.405333 0 0 1-17.493333 64.938667 124.501333 124.501333 0 0 1-47.786667 45.226667c-20.181333 10.837333-43.221333 16.213333-68.992 16.213333-25.258667 0-47.957333-4.992-68.053333-15.146667z m-364.672-22.528V314.069333a23.808 23.808 0 0 0-23.808-23.808h-26.496c-5.717333 0-11.349333 1.109333-16.64 3.285334l-28.330667 11.648a32.853333 32.853333 0 0 0 24.234667 61.098666l7.296-2.816v327.808a31.872 31.872 0 0 0 63.744 0z" p-id="2758"></path></svg>