<?xml version="1.0" standalone="no"?><!DOCTYPE svg PUBLIC "-//W3C//DTD SVG 1.1//EN" "http://www.w3.org/Graphics/SVG/1.1/DTD/svg11.dtd"><svg t="1750843602739" class="icon" viewBox="0 0 1024 1024" version="1.1" xmlns="http://www.w3.org/2000/svg" p-id="1947" xmlns:xlink="http://www.w3.org/1999/xlink" width="200" height="200"><path d="M42.666667 192a85.333333 85.333333 0 0 1 85.333333-85.333333h768a85.333333 85.333333 0 0 1 85.333333 85.333333v640a85.333333 85.333333 0 0 1-85.333333 85.333333H128a85.333333 85.333333 0 0 1-85.333333-85.333333v-640z m853.333333 0H128v640h768v-640z" fill="currentColor" p-id="1948"></path><path d="M361.770667 346.538667A42.666667 42.666667 0 0 1 384 384v256a42.666667 42.666667 0 1 1-85.333333 0v-177.706667l-19.541334 12.586667a42.666667 42.666667 0 1 1-46.250666-71.68l85.333333-55.04a42.666667 42.666667 0 0 1 43.52-1.621333zM767.104 346.538667A42.666667 42.666667 0 0 1 789.333333 384v256a42.666667 42.666667 0 1 1-85.333333 0v-177.706667l-19.541333 12.586667a42.666667 42.666667 0 1 1-46.250667-71.68l85.333333-55.04a42.666667 42.666667 0 0 1 43.52-1.621333zM512 384a42.666667 42.666667 0 0 1 42.666667 42.666667v21.333333a42.666667 42.666667 0 1 1-85.333334 0V426.666667a42.666667 42.666667 0 0 1 42.666667-42.666667zM512 533.333333a42.666667 42.666667 0 0 1 42.666667 42.666667v21.333333a42.666667 42.666667 0 1 1-85.333334 0v-21.333333a42.666667 42.666667 0 0 1 42.666667-42.666667z" fill="currentColor" p-id="1949"></path></svg>