<svg t="1750842546383" class="icon" viewBox="0 0 1024 1024" version="1.1" xmlns="http://www.w3.org/2000/svg" p-id="1969" width="200" height="200"><path fill="currentColor" d="M853.333 170.667H170.667A85.333 85.333 0 0 0 85.333 256v512a85.333 85.333 0 0 0 85.334 85.333h682.666A85.333 85.333 0 0 0 938.667 768V256a85.333 85.333 0 0 0-85.334-85.333z m0 597.333H170.667V298.667A42.667 42.667 0 0 1 213.333 256h213.334a42.667 42.667 0 0 1 42.666 42.667V384A42.667 42.667 0 0 0 512 426.667h341.333z m0-426.667H554.667v-42.666A42.667 42.667 0 0 1 597.333 256h213.334a42.667 42.667 0 0 1 42.666 42.667z" p-id="1970"></path></svg>