<?xml version="1.0" standalone="no"?><!DOCTYPE svg PUBLIC "-//W3C//DTD SVG 1.1//EN" "http://www.w3.org/Graphics/SVG/1.1/DTD/svg11.dtd"><svg t="1751123951105" class="icon" viewBox="0 0 1024 1024" version="1.1" xmlns="http://www.w3.org/2000/svg" p-id="2102" xmlns:xlink="http://www.w3.org/1999/xlink" width="200" height="200"><path fill="currentColor" d="M211.626667 312.576a130.474667 130.474667 0 0 1-98.133334-126.122667c0-71.68 58.453333-130.133333 130.133334-130.133333 71.68 0 130.133333 58.453333 130.133333 130.133333 0 60.629333-41.813333 111.786667-98.133333 126.122667v73.728a130.474667 130.474667 0 0 1 98.133333 126.122667c0 60.629333-41.813333 111.786667-98.133333 126.122666v72.874667a130.474667 130.474667 0 0 1 98.133333 126.122667c0 71.68-58.453333 130.133333-130.133333 130.133333-71.68 0-130.133333-58.453333-130.133334-130.133333 0-60.629333 41.813333-111.786667 98.133334-126.122667v-72.874667a130.474667 130.474667 0 0 1-98.133334-126.122666c0-60.629333 41.813333-111.786667 98.133334-126.165334V312.576z m-34.133334-126.122667c0-36.266667 29.866667-66.133333 66.133334-66.133333 36.266667 0 66.133333 29.866667 66.133333 66.133333 0 36.266667-29.866667 66.133333-66.133333 66.133334-36.266667 0-66.133333-29.866667-66.133334-66.133334z m0 325.973334c0-36.266667 29.866667-66.133333 66.133334-66.133334 36.266667 0 66.133333 29.866667 66.133333 66.133334 0 36.266667-29.866667 66.133333-66.133333 66.133333-36.266667 0-66.133333-29.866667-66.133334-66.133333z m66.133334 258.986666c-36.266667 0-66.133333 29.866667-66.133334 66.133334 0 36.266667 29.866667 66.133333 66.133334 66.133333 36.266667 0 66.133333-29.866667 66.133333-66.133333 0-36.266667-29.866667-66.133333-66.133333-66.133334z m246.613333-552.96h388.266667c17.493333 0 32-14.506667 32-32s-14.506667-32-32-32h-388.266667c-17.493333 0-32 14.506667-32 32s14.506667 32 32 32z m323.84 325.973334h-323.84c-17.493333 0-32-14.506667-32-32s14.506667-32 32-32h323.84c17.493333 0 32 14.506667 32 32s-14.506667 32-32 32z m-323.84 325.973333h388.266667c17.493333 0 32-14.506667 32-32s-14.506667-32-32-32h-388.266667c-17.493333 0-32 14.506667-32 32s14.506667 32 32 32z" p-id="2103"></path></svg>