<?xml version="1.0" standalone="no"?><!DOCTYPE svg PUBLIC "-//W3C//DTD SVG 1.1//EN" "http://www.w3.org/Graphics/SVG/1.1/DTD/svg11.dtd"><svg t="1750994131606" class="icon" viewBox="0 0 1024 1024" version="1.1" xmlns="http://www.w3.org/2000/svg" p-id="1982" xmlns:xlink="http://www.w3.org/1999/xlink" width="200" height="200"><path d="M766.86222222 172.18370333a182.04444445 182.04444445 0 0 1 181.94735445 176.14620444L948.90666667 354.22814777v339.81629668a182.04444445 182.04444445 0 0 1-176.14620445 181.94735445L766.86222222 876.08888889h-485.45185223a182.04444445 182.04444445 0 0 1-181.94735332-176.14620444L99.36592555 694.04444445v-339.81629668a182.04444445 182.04444445 0 0 1 176.14620444-181.94735332L281.41036999 172.18370333h485.45185223zM876.08888889 478.33391445H172.18370333V694.04444445a109.22666667 109.22666667 0 0 0 104.08087779 109.10530332L281.41036999 803.27111111h485.45185223a109.22666667 109.22666667 0 0 0 109.10530333-104.08087666L876.08888889 694.04444445v-215.71053z m-109.22666667 169.90814777a36.40888889 36.40888889 0 0 1 3.49525333 72.64787001l-3.49525333 0.16990777h-152.14060999a36.40888889 36.40888889 0 0 1-3.51952668-72.64787001l3.51952668-0.16990777H766.86222222zM766.86222222 245.0014811h-485.45185223a109.22666667 109.22666667 0 0 0-109.10530332 104.0808778L172.18370333 354.22814777v51.2879889h703.90518556V354.22814777a109.22666667 109.22666667 0 0 0-104.08087666-109.10530332L766.86222222 245.0014811z" fill="currentColor" p-id="1983"></path></svg>