<?xml version="1.0" standalone="no"?><!DOCTYPE svg PUBLIC "-//W3C//DTD SVG 1.1//EN" "http://www.w3.org/Graphics/SVG/1.1/DTD/svg11.dtd"><svg t="1751010594433" class="icon" viewBox="0 0 1024 1024" version="1.1" xmlns="http://www.w3.org/2000/svg" p-id="2221" xmlns:xlink="http://www.w3.org/1999/xlink" width="200" height="200"><path d="M766.86222222 147.91111111a182.04444445 182.04444445 0 0 1 182.04444445 182.04444444v388.36148111a182.04444445 182.04444445 0 0 1-182.04444445 182.04444444h-485.45185223A182.04444445 182.04444445 0 0 1 99.36592555 718.31703666v-388.36148111A182.04444445 182.04444445 0 0 1 281.41036999 147.91111111z m0 72.81777778h-485.45185223a109.22666667 109.22666667 0 0 0-109.22666666 109.22666666v388.36148111a109.22666667 109.22666667 0 0 0 109.22666666 109.22666667h485.45185223a109.22666667 109.22666667 0 0 0 109.22666667-109.22666667v-388.36148111a109.22666667 109.22666667 0 0 0-109.22666667-109.22666666z m-388.3614811 449.04296334a36.40888889 36.40888889 0 0 1 0 72.81777778h-97.09037113a36.40888889 36.40888889 0 0 1 0-72.81777778z m194.18073998 0a36.40888889 36.40888889 0 0 1 0 72.81777778h-97.09036999a36.40888889 36.40888889 0 0 1 0-72.81777778z m194.18074112 0a36.40888889 36.40888889 0 0 1 0 72.81777778h-97.09036999a36.40888889 36.40888889 0 0 1 0-72.81777778z" fill="currentColor" p-id="2222"></path></svg>