<?xml version="1.0" standalone="no"?><!DOCTYPE svg PUBLIC "-//W3C//DTD SVG 1.1//EN" "http://www.w3.org/Graphics/SVG/1.1/DTD/svg11.dtd"><svg t="1751010589031" class="icon" viewBox="0 0 1024 1024" version="1.1" xmlns="http://www.w3.org/2000/svg" p-id="2072" xmlns:xlink="http://www.w3.org/1999/xlink" width="200" height="200"><path d="M858.15999969 92a113.68000031 113.68000031 0 0 1 113.52 113.52v613.2a113.68000031 113.68000031 0 0 1-113.52 113.52H165.51999969A113.64 113.64 0 0 1 51.99999969 818.72V205.52A113.68000031 113.68000031 0 0 1 165.51999969 92z m33.52000031 348.40000031H132.00000031v378.31999969c0 18.48 15.04000031 33.52000031 33.51999938 33.52000031h692.64a33.55999969 33.55999969 0 0 0 33.52000031-33.52000031V440.40000031z m-33.52000031-268.40000062H165.51999969a33.55999969 33.55999969 0 0 0-33.51999938 33.52000031V380.40000031h759.67999969V205.52a33.55999969 33.55999969 0 0 0-33.52000031-33.52000031z m-158.19999938 33.36a31.99999969 31.99999969 0 0 1 45.24 0l83.59999969 83.56000031a31.99999969 31.99999969 0 0 1-45.28000031 45.19999969l-60.96-60.84-60.91999969 60.88000031a31.99999969 31.99999969 0 0 1-45.19999969-45.24z" fill="currentColor" p-id="2073"></path></svg>