<?xml version="1.0" standalone="no"?><!DOCTYPE svg PUBLIC "-//W3C//DTD SVG 1.1//EN" "http://www.w3.org/Graphics/SVG/1.1/DTD/svg11.dtd"><svg t="1750843884651" class="icon" viewBox="0 0 1088 1024" version="1.1" xmlns="http://www.w3.org/2000/svg" p-id="1923" xmlns:xlink="http://www.w3.org/1999/xlink" width="212.5" height="200"><path d="M801.43489583 142.859375a158.203125 158.203125 0 0 1 158.203125 158.203125v474.609375a158.203125 158.203125 0 0 1-158.203125 158.203125H274.09114583a158.203125 158.203125 0 0 1-158.203125-158.203125V301.0625a158.203125 158.203125 0 0 1 158.203125-158.203125h527.34375z m0 68.5546875H274.09114583A89.6484375 89.6484375 0 0 0 184.44270833 301.0625v474.609375A89.6484375 89.6484375 0 0 0 274.09114583 865.3203125h527.34375a89.6484375 89.6484375 0 0 0 89.6484375-89.6484375V301.0625A89.6484375 89.6484375 0 0 0 801.43489583 211.4140625z" fill="currentColor" p-id="1924"></path><path d="M151.48372395 338.08203125h776.35546875v68.5546875H151.48372395z" fill="currentColor" p-id="1925"></path><path d="M353.19270833 90.125m34.27734375 0l0 0q34.27734375 0 34.27734375 34.27734375l0 105.46875q0 34.27734375-34.27734375 34.27734375l0 0q-34.27734375 0-34.27734375-34.27734375l0-105.46875q0-34.27734375 34.27734375-34.27734375Z" fill="currentColor" p-id="1926"></path><path d="M653.77864583 90.125m34.27734375 0l0 0q34.27734375 0 34.27734375 34.27734375l0 105.46875q0 34.27734375-34.27734375 34.27734375l0 0q-34.27734375 0-34.27734375-34.27734375l0-105.46875q0-34.27734375 34.27734375-34.27734375Z" fill="currentColor" p-id="1927"></path><path d="M279.78645833 529.03320313m34.27734375-1e-8l73.828125 0q34.27734375 0 34.27734375 34.27734375l0 0q0 34.27734375-34.27734375 34.27734375l-73.828125 0q-34.27734375 0-34.27734375-34.27734375l0 0q0-34.27734375 34.27734375-34.27734375Z" fill="currentColor" p-id="1928"></path><path d="M466.57161458 529.03320313m34.27734375-1e-8l73.828125 0q34.27734375 0 34.27734375 34.27734375l0 0q0 34.27734375-34.27734375 34.27734375l-73.828125 0q-34.27734375 0-34.27734375-34.27734375l0 0q0-34.27734375 34.27734375-34.27734375Z" fill="currentColor" p-id="1929"></path><path d="M279.78645833 655.17382813m34.27734375-1e-8l73.828125 0q34.27734375 0 34.27734375 34.27734375l0 0q0 34.27734375-34.27734375 34.27734375l-73.828125 0q-34.27734375 0-34.27734375-34.27734375l0 0q0-34.27734375 34.27734375-34.27734375Z" fill="currentColor" p-id="1930"></path><path d="M466.57161458 655.17382813m34.27734375-1e-8l73.828125 0q34.27734375 0 34.27734375 34.27734375l0 0q0 34.27734375-34.27734375 34.27734375l-73.828125 0q-34.27734375 0-34.27734375-34.27734375l0 0q0-34.27734375 34.27734375-34.27734375Z" fill="currentColor" p-id="1931"></path><path d="M653.35677083 529.03320313m34.27734375-1e-8l73.828125 0q34.27734375 0 34.27734375 34.27734375l0 0q0 34.27734375-34.27734375 34.27734375l-73.828125 0q-34.27734375 0-34.27734375-34.27734375l0 0q0-34.27734375 34.27734375-34.27734375Z" fill="currentColor" p-id="1932"></path></svg>