<?xml version="1.0" standalone="no"?><!DOCTYPE svg PUBLIC "-//W3C//DTD SVG 1.1//EN" "http://www.w3.org/Graphics/SVG/1.1/DTD/svg11.dtd"><svg t="1750843062546" class="icon" viewBox="0 0 1024 1024" version="1.1" xmlns="http://www.w3.org/2000/svg" p-id="2450" xmlns:xlink="http://www.w3.org/1999/xlink" width="200" height="200"><path fill="currentColor" d="M913.92 506.88c-20.48-20.48-51.2-20.48-71.68 0L578.56 768c-81.92 81.92-215.04 81.92-296.96 0-81.92-81.92-81.92-215.04 0-296.96l248.32-248.32c53.76-53.76 143.36-53.76 199.68 0 43.52 43.52 43.52 115.2 0 161.28L460.8 650.24c-17.92 17.92-46.08 17.92-61.44 0-17.92-17.92-17.92-46.08 0-61.44l261.12-261.12c20.48-20.48 20.48-51.2 0-71.68-20.48-20.48-51.2-20.48-71.68 0L327.68 517.12c-56.32 56.32-56.32 148.48 0 207.36 56.32 56.32 148.48 56.32 207.36 0l268.8-268.8c84.48-84.48 84.48-220.16 0-304.64-94.72-94.72-248.32-94.72-343.04 0l-248.32 248.32c-122.88 122.88-122.88 320 0 442.88 122.88 122.88 320 122.88 442.88 0l261.12-261.12c15.36-20.48 15.36-53.76-2.56-74.24z" p-id="2451"></path></svg>