<?xml version="1.0" standalone="no"?><!DOCTYPE svg PUBLIC "-//W3C//DTD SVG 1.1//EN" "http://www.w3.org/Graphics/SVG/1.1/DTD/svg11.dtd"><svg t="1750939421784" class="icon" viewBox="0 0 1024 1024" version="1.1" xmlns="http://www.w3.org/2000/svg" p-id="1952" xmlns:xlink="http://www.w3.org/1999/xlink" width="200" height="200"><path d="M352.853333 970.666667H180.48c-85.76 0-127.146667-39.68-127.146667-121.6V174.933333c0-81.92 41.813333-121.6 127.146667-121.6h172.373333c85.76 0 127.146667 39.68 127.146667 121.6v674.133334c0 81.92-41.813333 121.6-127.146667 121.6z m-172.373333-853.333334c-54.186667 0-63.146667 14.506667-63.146667 57.6v674.133334c0 43.093333 8.96 57.6 63.146667 57.6h172.373333c54.186667 0 63.146667-14.506667 63.146667-57.6V174.933333c0-43.093333-8.96-57.6-63.146667-57.6H180.48zM843.52 672h-172.373333c-85.76 0-127.146667-39.68-127.146667-121.6V174.933333c0-81.92 41.813333-121.6 127.146667-121.6h172.373333c85.76 0 127.146667 39.68 127.146667 121.6v375.466667c0 81.92-41.813333 121.6-127.146667 121.6z m-172.373333-554.666667c-54.186667 0-63.146667 14.506667-63.146667 57.6v375.466667c0 43.093333 8.96 57.6 63.146667 57.6h172.373333c54.186667 0 63.146667-14.506667 63.146667-57.6V174.933333c0-43.093333-8.96-57.6-63.146667-57.6h-172.373333z" fill="currentColor" p-id="1953"></path></svg>