<?xml version="1.0" standalone="no"?><!DOCTYPE svg PUBLIC "-//W3C//DTD SVG 1.1//EN" "http://www.w3.org/Graphics/SVG/1.1/DTD/svg11.dtd"><svg t="1750843606623" class="icon" viewBox="0 0 1024 1024" version="1.1" xmlns="http://www.w3.org/2000/svg" p-id="2097" xmlns:xlink="http://www.w3.org/1999/xlink" width="200" height="200"><path d="M42.666667 192a85.333333 85.333333 0 0 1 85.333333-85.333333h768a85.333333 85.333333 0 0 1 85.333333 85.333333v640a85.333333 85.333333 0 0 1-85.333333 85.333333H128a85.333333 85.333333 0 0 1-85.333333-85.333333v-640z m853.333333 0H128v640h768v-640z" fill="currentColor" p-id="2098"></path><path d="M340.437333 346.538667A42.666667 42.666667 0 0 1 362.666667 384v256a42.666667 42.666667 0 1 1-85.333334 0v-177.706667l-19.541333 12.586667a42.666667 42.666667 0 1 1-46.250667-71.68l85.333334-55.04a42.666667 42.666667 0 0 1 43.52-1.621333zM606.293333 343.168a42.666667 42.666667 0 0 1 47.872 17.152l92.501334 138.752V384a42.666667 42.666667 0 1 1 85.333333 0v256a42.666667 42.666667 0 0 1-78.165333 23.68L661.333333 524.928V640a42.666667 42.666667 0 0 1-85.333333 0V384a42.666667 42.666667 0 0 1 30.293333-40.832zM469.333333 384a42.666667 42.666667 0 0 1 42.666667 42.666667v21.333333a42.666667 42.666667 0 1 1-85.333333 0V426.666667a42.666667 42.666667 0 0 1 42.666666-42.666667zM469.333333 533.333333a42.666667 42.666667 0 0 1 42.666667 42.666667v21.333333a42.666667 42.666667 0 1 1-85.333333 0v-21.333333a42.666667 42.666667 0 0 1 42.666666-42.666667z" fill="currentColor" p-id="2099"></path></svg>