<?xml version="1.0" standalone="no"?><!DOCTYPE svg PUBLIC "-//W3C//DTD SVG 1.1//EN" "http://www.w3.org/Graphics/SVG/1.1/DTD/svg11.dtd"><svg t="1750841651378" class="icon" viewBox="0 0 1024 1024" version="1.1" xmlns="http://www.w3.org/2000/svg" p-id="1854" xmlns:xlink="http://www.w3.org/1999/xlink" width="200" height="200"><path d="M906.026667 801.621333V222.378667q0-28.245333-20.010667-48.213334-19.968-19.968-48.213333-19.968H186.197333q-28.245333 0-48.213333 19.968-20.010667 19.968-20.010667 48.213334v579.242666q0 28.245333 20.010667 48.213334 19.968 19.968 48.213333 19.968h651.605334q28.245333 0 48.213333-19.968 20.010667-19.968 20.010667-48.213334zM837.802667 218.197333q4.224 0 4.224 4.181334v579.242666q0 4.181333-4.224 4.181334H186.197333q-4.224 0-4.224-4.181334V222.378667q0-4.181333 4.224-4.181334h651.605334z" fill="currentColor" p-id="1855"></path><path d="M149.973333 371.413333h724.053334q3.114667 0 6.229333 0.597334 3.072 0.597333 5.973333 1.834666 2.944 1.194667 5.546667 2.944 2.645333 1.749333 4.864 3.968 2.218667 2.261333 3.968 4.864 1.749333 2.602667 2.986667 5.546667 1.194667 2.901333 1.792 5.973333 0.64 3.114667 0.64 6.272t-0.64 6.229334q-0.597333 3.072-1.792 5.973333-1.237333 2.944-2.986667 5.546667-1.706667 2.645333-3.968 4.864-2.218667 2.218667-4.864 3.968-2.602667 1.749333-5.546667 2.986666-2.901333 1.194667-5.973333 1.792-3.114667 0.64-6.229333 0.64H149.973333q-3.114667 0-6.229333-0.64-3.072-0.597333-5.973333-1.792-2.944-1.237333-5.546667-2.986666-2.645333-1.706667-4.864-3.968-2.218667-2.218667-3.968-4.864-1.749333-2.602667-2.986667-5.546667-1.194667-2.901333-1.792-5.973333-0.64-3.072-0.64-6.229334t0.64-6.272q0.597333-3.072 1.834667-5.973333 1.194667-2.944 2.944-5.546667 1.706667-2.602667 3.968-4.864 2.218667-2.218667 4.864-3.968 2.602667-1.749333 5.546667-2.986666 2.901333-1.194667 5.973333-1.792 3.114667-0.597333 6.229333-0.597334z" fill="currentColor" p-id="1856"></path><path d="M362.368 403.413333q0-3.157333 0.597333-6.272 0.597333-3.072 1.834667-5.973333 1.194667-2.944 2.944-5.546667 1.706667-2.602667 3.968-4.864 2.218667-2.218667 4.864-3.968 2.602667-1.749333 5.546667-2.986666 2.901333-1.194667 5.973333-1.792 3.114667-0.597333 6.272-0.597334 3.114667 0 6.229333 0.597334 3.072 0.597333 5.973334 1.834666 2.944 1.194667 5.546666 2.944 2.645333 1.749333 4.864 3.968 2.218667 2.261333 3.968 4.864 1.749333 2.602667 2.986667 5.546667 1.194667 2.901333 1.792 5.973333 0.64 3.114667 0.64 6.272v434.389334q0 3.157333-0.64 6.229333-0.597333 3.114667-1.834667 6.016-1.194667 2.901333-2.944 5.546667-1.706667 2.602667-3.968 4.821333-2.218667 2.261333-4.864 4.010667-2.602667 1.706667-5.546666 2.944-2.901333 1.194667-5.973334 1.834666-3.114667 0.597333-6.229333 0.597334-3.157333 0-6.272-0.597334-3.072-0.64-5.973333-1.834666-2.944-1.194667-5.546667-2.986667-2.645333-1.706667-4.864-3.968-2.218667-2.218667-3.968-4.821333-1.749333-2.645333-2.986667-5.546667-1.194667-2.901333-1.792-5.973333-0.597333-3.114667-0.597333-6.272V403.413333zM597.632 403.413333q0-3.157333 0.64-6.272 0.597333-3.072 1.834667-5.973333 1.194667-2.944 2.944-5.546667 1.706667-2.602667 3.968-4.864 2.218667-2.218667 4.864-3.968 2.602667-1.749333 5.546666-2.986666 2.901333-1.194667 5.973334-1.792 3.114667-0.597333 6.229333-0.597334 3.157333 0 6.272 0.597334 3.072 0.597333 5.973333 1.834666 2.944 1.194667 5.546667 2.944 2.645333 1.749333 4.864 3.968 2.218667 2.261333 3.968 4.864 1.749333 2.602667 2.986667 5.546667 1.194667 2.901333 1.792 5.973333 0.597333 3.114667 0.597333 6.272v434.389334q0 3.157333-0.597333 6.229333-0.597333 3.114667-1.834667 6.016-1.194667 2.901333-2.944 5.546667-1.706667 2.602667-3.968 4.821333-2.218667 2.261333-4.864 4.010667-2.602667 1.706667-5.546667 2.944-2.901333 1.194667-5.973333 1.834666-3.114667 0.597333-6.272 0.597334-3.114667 0-6.229333-0.597334-3.072-0.64-5.973334-1.834666-2.944-1.194667-5.546666-2.986667-2.645333-1.706667-4.864-3.968-2.218667-2.218667-3.968-4.821333-1.749333-2.645333-2.986667-5.546667-1.194667-2.901333-1.792-5.973333-0.64-3.114667-0.64-6.272V403.413333z" fill="currentColor" p-id="1857"></path><path d="M149.973333 588.586667h724.053334q3.114667 0 6.229333 0.64 3.072 0.597333 5.973333 1.792 2.944 1.237333 5.546667 2.986666 2.645333 1.706667 4.864 3.968 2.218667 2.218667 3.968 4.864 1.749333 2.602667 2.986667 5.546667 1.194667 2.901333 1.792 5.973333 0.64 3.114667 0.64 6.229334 0 3.157333-0.64 6.272-0.597333 3.072-1.792 5.973333-1.237333 2.944-2.986667 5.546667-1.706667 2.602667-3.968 4.864-2.218667 2.218667-4.864 3.968-2.602667 1.749333-5.546667 2.986666-2.901333 1.194667-5.973333 1.792-3.114667 0.597333-6.229333 0.597334H149.973333q-3.114667 0-6.229333-0.597334-3.072-0.597333-5.973333-1.834666-2.944-1.194667-5.546667-2.944-2.645333-1.749333-4.864-3.968-2.218667-2.261333-3.968-4.864-1.749333-2.602667-2.986667-5.546667-1.194667-2.901333-1.792-5.973333-0.64-3.114667-0.64-6.272 0-3.114667 0.64-6.229334 0.597333-3.072 1.834667-5.973333 1.194667-2.944 2.944-5.546667 1.706667-2.645333 3.968-4.864 2.218667-2.218667 4.864-3.968 2.602667-1.749333 5.546667-2.986666 2.901333-1.194667 5.973333-1.792 3.114667-0.64 6.229333-0.64z" fill="currentColor" p-id="1858"></path><path d="M181.973333 222.421333v579.2q0 4.181333 4.224 4.181334h651.605334q4.224 0 4.224-4.181334V222.378667q0-3.157333 0.597333-6.229334t1.834667-5.973333q1.194667-2.944 2.944-5.546667 1.749333-2.645333 3.968-4.864 2.261333-2.218667 4.864-3.968 2.602667-1.749333 5.546666-2.986666 2.901333-1.194667 5.973334-1.792 3.114667-0.64 6.272-0.64 3.114667 0 6.229333 0.64 3.072 0.597333 5.973333 1.792 2.944 1.237333 5.546667 2.986666 2.645333 1.706667 4.864 3.968 2.218667 2.218667 3.968 4.864 1.749333 2.602667 2.986667 5.546667 1.194667 2.901333 1.792 5.973333 0.64 3.072 0.64 6.229334v579.242666q0 28.245333-20.010667 48.213334-19.968 19.968-48.213333 19.968H186.197333q-28.245333 0-48.213333-19.968-20.010667-19.968-20.010667-48.213334V222.378667q0-3.157333 0.64-6.229334 0.597333-3.072 1.834667-5.973333 1.194667-2.944 2.944-5.546667 1.706667-2.645333 3.968-4.864 2.218667-2.218667 4.864-3.968 2.602667-1.749333 5.546667-2.986666 2.901333-1.194667 5.973333-1.792 3.114667-0.64 6.229333-0.64 3.157333 0 6.272 0.64 3.072 0.597333 5.973334 1.792 2.944 1.237333 5.546666 2.986666 2.645333 1.706667 4.864 3.968 2.218667 2.218667 3.968 4.864 1.749333 2.602667 2.986667 5.546667 1.194667 2.901333 1.792 5.973333 0.597333 3.072 0.597333 6.229334z" fill="currentColor" p-id="1859"></path></svg>