<?xml version="1.0" standalone="no"?><!DOCTYPE svg PUBLIC "-//W3C//DTD SVG 1.1//EN" "http://www.w3.org/Graphics/SVG/1.1/DTD/svg11.dtd"><svg t="1767419563226" class="icon" viewBox="0 0 1024 1024" version="1.1" xmlns="http://www.w3.org/2000/svg" p-id="3159" xmlns:xlink="http://www.w3.org/1999/xlink" width="200" height="200"><path d="M672 648.496V435.28A19.264 19.264 0 0 1 691.264 416h215.904A36.832 36.832 0 0 1 944 452.832v195.68A135.504 135.504 0 0 1 808.496 784h-0.992A135.504 135.504 0 0 1 672 648.496z" fill="#5059C9" p-id="3160"></path><path d="M808 280m-88 0a88 88 0 1 0 176 0 88 88 0 1 0-176 0Z" fill="#5059C9" p-id="3161"></path><path d="M797.68 793.952q-2.72-0.128-5.6-0.352 2.784 0.24 5.6 0.352zM800.192 794.032l-1.232-0.032z" fill="#5059C9" p-id="3162"></path><path d="M528 240m-128 0a128 128 0 1 0 256 0 128 128 0 1 0-256 0Z" fill="#7B83EB" p-id="3163"></path><path d="M730.672 416H357.328A37.12 37.12 0 0 0 320 452.928v221.536a224 224 0 0 0 448 0V452.928A37.12 37.12 0 0 0 730.672 416z" fill="#7B83EB" p-id="3164"></path><path d="M528 416v330.72a27.744 27.744 0 0 1-0.64 6.4A37.024 37.024 0 0 1 490.72 784h-141.28a172.96 172.96 0 0 1-8.48-16c-2.56-5.28-4.8-10.56-6.88-16a219.04 219.04 0 0 1-14.08-77.6V452.96A37.056 37.056 0 0 1 357.28 416zM528 325.28V368a132.112 132.112 0 0 1-16-0.96A128.32 128.32 0 0 1 409.28 288h81.44A37.216 37.216 0 0 1 528 325.28z" opacity=".2" p-id="3165"></path><path d="M544 416v298.72A53.792 53.792 0 0 1 490.72 768h-149.76c-2.56-5.28-4.8-10.56-6.88-16a219.04 219.04 0 0 1-14.08-77.6V452.96A37.056 37.056 0 0 1 357.28 416zM544 325.28v41.76a133.68 133.68 0 0 1-32 0A128.32 128.32 0 0 1 409.28 288a133.648 133.648 0 0 1-5.28-16h86.72A53.472 53.472 0 0 1 544 325.28z" opacity=".1" p-id="3166"></path><path d="M528 416v298.72A37.216 37.216 0 0 1 490.72 752h-156.64a219.04 219.04 0 0 1-14.08-77.6V452.96A37.056 37.056 0 0 1 357.28 416zM528 325.28V368a132.112 132.112 0 0 1-16-0.96A128.32 128.32 0 0 1 409.28 288h81.44A37.216 37.216 0 0 1 528 325.28z" opacity=".2" p-id="3167"></path><path d="M512 325.28v41.76A128.32 128.32 0 0 1 409.28 288h65.44A37.216 37.216 0 0 1 512 325.28zM357.28 416H512v298.72A37.216 37.216 0 0 1 474.72 752h-140.64a219.04 219.04 0 0 1-14.08-77.6V452.96A37.056 37.056 0 0 1 357.28 416z" opacity=".1" p-id="3168"></path><path d="M64 288m37.328 0l373.344 0q37.328 0 37.328 37.328l0 373.344q0 37.328-37.328 37.328l-373.344 0q-37.328 0-37.328-37.328l0-373.344q0-37.328 37.328-37.328Z" fill="#4B53BC" p-id="3169"></path><path d="M384.128 424.448h-73.024v208.448h-46.544V424.448h-72.688V384h192.256z" fill="#FFFFFF" p-id="3170"></path></svg>